<svg xmlns="http://www.w3.org/2000/svg" viewBox="0 0 360 90" width="360" height="90">
  <defs>
    <linearGradient id="cupGradL" x1="0%" y1="0%" x2="0%" y2="100%">
      <stop offset="0%" stop-color="#FDF8F2"/>
      <stop offset="100%" stop-color="#E8D9C4"/>
    </linearGradient>
    <linearGradient id="baseGradL" x1="0%" y1="0%" x2="0%" y2="100%">
      <stop offset="0%" stop-color="#D4A574"/>
      <stop offset="100%" stop-color="#C4956A"/>
    </linearGradient>
  </defs>

  <!-- Cupcake icon -->
  <g transform="translate(8,8)">
    <path d="M37 6
             C 25 6, 18 16, 22 26
             C 14 24, 8 32, 14 40
             C 8 46, 14 56, 24 54
             C 26 62, 48 62, 50 54
             C 60 56, 66 46, 60 40
             C 66 32, 60 24, 52 26
             C 56 16, 49 6, 37 6 Z"
          fill="url(#cupGradL)" stroke="#C4956A" stroke-width="2"/>
    <circle cx="37" cy="20" r="5" fill="#C4956A" stroke="#8B5E3C" stroke-width="1.5"/>
    <path d="M16 50 L58 50 L51 78 L23 78 Z" fill="url(#baseGradL)" stroke="#8B5E3C" stroke-width="2"/>
    <path d="M19 58 L55 58 M21 66 L53 66" stroke="#8B5E3C" stroke-width="1.5" opacity="0.5"/>
  </g>

  <!-- Wordmark (light, for dark backgrounds) -->
  <text x="92" y="44" font-family="'Playfair Display', serif" font-size="34" font-weight="700" fill="rgba(253,248,242,0.85)">zr<tspan fill="#D4A574">events06</tspan></text>
  <text x="93" y="68" font-family="'Nunito', sans-serif" font-size="12" letter-spacing="3" fill="rgba(253,248,242,0.45)">PÂTISSERIE &amp; ÉVÉNEMENTS</text>
</svg>
